<?xml version="1.0" encoding="UTF-8"?>
<svg id="Calque_1" data-name="Calque 1" xmlns="http://www.w3.org/2000/svg" viewBox="0 0 1012.7803695 705.64704">
  <defs>
    <style>
      .cls-1 {
        fill: #fff;
        stroke-width: 0px;
      }
    </style>
  </defs>
  <path class="cls-1" d="m487.1638506,482.763796c-3.0073159-7.7097194-3.8197325-15.1637908-4.7186002-23.2141984-.9807816-8.784042-1.4193582-17.6247701-1.4420029-26.4618564-.0593385-23.093816,2.8712601-46.1307562,7.6654831-68.6966364,1.7759381-8.3591455,3.8123393-16.6623037,6.0646711-24.9055911-11.9025862,21.6082676-19.6373446,45.5025132-22.6552901,69.9868102-.2387744,1.9579504-26.745428-.620546-29.3088967-.9790959-10.5056316-1.4694126-20.9080918-3.5719471-31.2938502-5.710966-23.1868497-4.7741861-45.7253628-12.6497473-66.8955736-23.2359346-42.3234933-21.1639097-79.3397686-53.3071913-104.8431409-93.2880211-15.2768253-23.9489683-27.8181408-48.7209859-44.5090607-71.6650015-1.4146917-1.9446924-2.9215626-3.8921787-4.9400261-5.1994601-5.3225551-3.4472249-10.5705397-1.1625297-16.1928967-1.195621-5.9399623-.0349607-12.246018-1.4880874-18.0595273-2.6125633-11.4079185-2.2065724-22.6178501-5.4351234-33.4565373-9.6215471-21.6694503-8.3697868-41.8768524-20.584691-59.1617062-36.1224506C26.0507831,126.2523872,2.7216176,77.5082731,0,27.3379769c16.5500945,37.2264001,63.5542356,47.5316063,103.8877085,53.269329,40.3334729,5.7377227,87.3728217,16.6019422,103.2334726,54.1272702,1.4915319-15.8671505,13.7683719-28.7645159,27.3538691-37.0967063,13.5854973-8.3321904,28.9549003-13.4221559,42.5595982-21.7229587,26.5995341-16.2295031,45.168731-44.9927677,49.0096986-75.9149111,18.6565439,34.1419042,17.58786,77.2377527,1.1094968,112.4826077-16.4783633,35.2448549-47.1001226,62.7881042-82.1266131,79.7256723-4.535074,2.1930011-9.5447078,4.6169691-11.4889112,9.2641429-2.8707873,6.8619646,2.4344775,14.2353552,7.5979638,19.5894582,36.4013478,37.7451225,84.4223386,63.4187375,135.4050437,75.0249323,23.1329628,5.2661799,49.2912697,10.6420989,73.070055,7.1641146,18.8425201-2.7559881,37.3962441-7.7026692,55.4586375-13.5080106,3.7006912-1.1894202,8.5366858-1.035171,10.5411289,2.2953009,1.1531434,1.9159982.9987073,4.3153806.7921859,6.5420712-2.8649077,30.8891181-14.205428,72.6706538-2.8379433,102.5692783,4.4700724-59.6756911,21.7053693-113.8684774,68.6643569-154.0153544-14.9179413,34.8457689-20.0419992,73.8235207-14.6370032,111.3409645-2.4368774-16.9149827,4.8527473-39.6240804,9.7184918-55.6531749,5.6615664-18.6507495,13.6384134-36.6005764,23.7013654-53.2936315,20.6134073-34.1948109,50.5573735-57.6648152,89.1570193-69.1498765-19.2959132,35.5441318-25.1880014,77.1690765-9.5092935,114.517818-.4179982-29.2648819-.4160992-60.2062031,14.4087681-85.4417206,6.7380084-11.4697321,16.2393799-21.1178745,26.641392-29.4096571,17.904288-14.2720899,38.757569-24.8277114,60.8598706-30.8063628-21.4017987,30.4607226-31.5547167,68.6418629-28.1097399,105.7097033,3.0043225-32.9814342,13.9089115-65.9466762,35.3622521-91.1767205,21.4533406-25.2300443,54.2955848-41.771605,87.3105281-39.1611504-26.2259148,24.4964258-43.3653381,58.5089831-47.4499692,94.1627244,9.8232601-30.4722882,28.3753342-58.0764614,52.8800218-78.6817296,12.8352432-10.7927771,28.8018857-20.0602082,45.4386547-17.9517908-21.9903744,18.4479428-39.6331219,42.0449232-51.1073269,68.3554865,11.4868693-18.4988015,23.7525717-32.2948692,41.5490055-45.2691446,11.4671284-8.3599704,23.861105-16.4864017,37.9436811-18.2365988,7.2337934-.8990233,14.3476889.8370524,20.7618143,4.3656271,9.1110995,5.0122513,16.423971,13.261623,20.9899244,22.5469522,3.9621166,8.0573652,9.5098434,15.2446982,2.5291468,23.0430635-4.9098973,5.4850075-12.5559376,8.2989984-19.3625545,10.5435163-22.4235817,7.3942946-44.6218714,15.4714847-66.5554792,24.2126604-66.4664072,26.4887812-130.5028557,59.0748601-191.0274329,97.2361774-28.3367644,17.8665975-55.4905897,39.7786498-81.4723504,61.1561008-27.062842,22.2669504-52.7888561,46.1852822-76.5787808,71.9303113-25.3075846,27.3874026-48.6593182,56.5869939-69.738105,87.3495649-21.4438539,31.2953534-37.2594417,66.2694568-59.0325133,97.0673437-2.7597296,3.9036987-5.6262118,7.6552354-8.5407162,11.5233806-7.7004082,10.2200212-14.4482816,21.2786774-22.2105448,31.4028813-6.0502841,7.8912951-11.2302138,16.2893768-17.1471871,24.4498901-2.3671309,3.2646764-4.1885604,7.9407891-7.1655301,10.5890824-1.76539,1.5704797-1.9023101,1.957432-2.5839786-.6689266-1.5770409-6.076084.7972356-10.7813413,4.1559982-15.2249462,5.7517779-7.6095371,11.0249491-15.6963468,16.2320401-23.7325829,3.713041-5.7304307,7.7476527-10.9723862,11.1417828-16.9740871,3.907219-6.9089748,7.9923439-14.1539843,12.6562457-20.53717,3.9580343-5.4171097,7.4473949-11.1384277,10.9548535-16.7969285,1.3967525-2.253348,4.6193324-7.1934107,4.2672627-9.7466073-.2212472-1.6044769-2.1944919-2.8705113-3.0413822-4.1388619-1.4046975-2.1037541-2.6253005-4.2231829-3.9116125-6.4202353-.9932914-1.6965661-1.8479303-3.4642086-2.6959285-5.2361483-4.2905905-8.9654295-7.9950277-17.0628208-9.6919653-26.9750905-1.5916184-9.2970719-1.8043693-18.8248273-.696279-28.1897241,1.1078977-9.363269,3.5379321-18.577247,7.2623778-27.2416309,1.8580784-4.3225505,4.0374586-8.5079571,6.531791-12.4977722,1.2978089-2.0759132,2.6799545-4.0992137,4.1467646-6.0627147,1.3000997-1.7366125,3.1801179-2.9391074,3.9207859-5.0227636-.7044439,9.1929197.2592489,18.4807345,2.4266288,27.4275685,2.0453951,8.4432869,4.9512768,18.2879485,9.9479107,25.5008055.0032699-3.1543807-1.1177992-6.6764192-1.6351203-9.8275955-.5819338-3.544754-1.1164965-7.0975994-1.5734297-10.6607414-.8943284-6.9739284-1.4966202-13.9916218-1.5900597-21.0246733-.1870097-14.0759334,1.7156324-28.3341909,7.1420529-41.3234493,3.7461099-8.9670898,9.0927899-17.1674467,14.638418-25.1479255-1.939334,20.8659758,4.3921562,42.3882437,17.3215363,58.8800933Z"/>
  <path class="cls-1" d="m1012.470846,210.0973706c1.6094481,10.8817404-3.2150008,22.4046722-10.8151795,30.0840901-10.3039978,10.4114269-24.8215236,15.3714464-39.0166659,18.986462-6.6833149,1.7020068-13.9752653,3.1386125-20.2895741.3649814,18.0663609,5.8498926,37.7656306,6.5614009,56.2069445,2.0301114-14.2508162,15.7309096-28.0431864,27.813063-47.836143,36.2728576-9.517353,4.0678537-19.4501181,7.1356796-29.5538149,9.3600565-5.9493988,1.3097884-22.741635,6.815043-28.3063493,4.0682837,20.9553383,10.3436167,45.8809333,5.3736436,68.6671777.1867446-8.6724499,10.9416743-18.7422304,20.7745791-29.8872098,29.1841604-5.8548003,4.417815-12.1779727,8.5205479-19.3241905,10.1720158-6.7575418,1.5616424-13.8118912.8338247-20.6949045-.0189435-18.0973795-2.2421694-36.6567234-5.5016335-52.0400101-15.2943325,11.160795,18.0089354,33.442534,25.7283332,54.4442206,28.5235133-13.1254747,15.5567503-41.2040959,22.1547671-60.3472592,24.7753771-11.5961783,1.5874629-23.3893533,1.7781631-35.0253346.498056-9.6136265-1.0576222-24.6057558-2.292469-32.8275972-7.8366548,20.8442169,14.0557573,45.6164304,22.2188644,70.7333239,23.3085226-14.7054244,11.4123132-33.3327809,16.9323061-51.8882566,18.4103864-18.5554757,1.4780803-37.1963295-.8469083-55.579921-3.7682037,20.5713699,7.5330919,42.7153456,10.7406666,64.5787093,9.3542839-38.2896194,15.5612847-81.7035792,18.191723-121.5919054,7.3672156,12.327818,6.7841827,26.1047019,10.2781895,39.9711389,12.145319,12.2932453,1.6552976,27.4403904,4.1277448,39.6951149,1.9848138-5.4846034,7.0328013-12.8756914,13.0990495-20.0032895,18.423397-16.8192604,12.5639427-36.8863194,17.4704214-57.4128665,20.1833978-30.3349118,4.0093397-61.5309037,6.8534997-91.2412375-.4661662,31.4165203,12.31006,66.2514419,15.7573659,99.4713937,9.8438115-30.481704,26.8035122-68.4100722,44.9503736-108.373092,52.3718435-14.2000286,2.6370649-28.6683003,3.8480218-43.1093314,3.5469668-11.4316888-.2383186-29.9958215,1.8727064-29.0005158-14.5549939.4303232-7.1025626,4.7956631-13.2838989,9.0995915-18.9502849,39.0337626-51.3903251,85.3626155-97.8326885,134.1359434-139.646103,24.9542918-21.3933351,51.2284666-41.240176,78.5512648-59.5087184,82.0650361-54.8702951,173.201232-95.4892994,267.5563999-124.5209832,13.3867809-4.1186463,19.0256745-.3555997,21.0429103,13.0482414.0035349.0234885.0070399.0469801.0105148.0704746Z"/>
  <path class="cls-1" d="m439.396904,458.4743853c.1084988-.5134461.2185705-1.0219147.3434541-1.5166859.5955762-2.3595894,1.2304815-4.7103033,1.9623066-7.0316591,1.4518423-4.6052564,3.2899985-9.11802,5.8866796-13.2049146,2.0439876-3.217014,4.5271904-6.1282542,7.0014211-9.0274347,2.1761698-2.5499267,4.3523396-5.0998535,6.5285094-7.6497809-17.5408808-.7187377-35.0278288-2.7380736-52.2726868-6.025639-9.2218639-1.7580592-18.3746195-3.8788063-27.4294992-6.357307-9.0188889-2.4686493-17.6005418-5.6962687-26.1603007-9.4706723-10.225774-4.5090286-20.1760472-9.6441267-29.7674453-15.3806522-20.1199215-12.0335349-38.6476575-26.7063937-55.0433771-43.4593027-15.3334097-15.6674562-33.8656534-35.6252432-42.1302555-56.1636749,10.518109,21.0774258,17.8248674,43.111212,30.1549483,63.5458367,12.3113136,20.4035216,26.5681938,39.6042713,42.1234869,57.6440355,10.6304831,12.3283701,21.9070775,24.1183458,33.9873356,35.0367995,12.0895487,10.9268507,24.9951484,20.9846609,38.7891433,29.6762385,6.8604758,4.3227766,13.9377519,8.3044376,21.2191999,11.8742194,3.6439922,1.7864931,7.3386672,3.4698298,11.0804242,5.0413942,1.873475.7868728,3.7544674,1.5734751,5.660775,2.2780357,1.6804747.621094,3.3646314,1.5705147,5.1833223,1.7284102,1.088094.0944664,2.17445-.074206,3.0658892-.7453696,1.0393438-.7825209,1.5652027-2.055229,2.0287982-3.2708168,1.9422616-5.0927798,3.7316345-10.4878917,7.6087968-14.3188706,2.9366712-2.9016898,7.0099561-4.8432109,8.82485-8.5513102.6978325-1.4257316,1.0184988-3.0621347,1.3542242-4.6508792Z"/>
  <path class="cls-1" d="m708.2890953,601.8695222c23.6971203,22.1366224,42.1497853,49.4424009,56.7135491,78.4183244,1.3942861,2.7737432,6.0044697,10.5641085,9.8975473,6.3456297,1.2209702-1.3230245,1.5296207-3.2261553,1.7432989-5.0137525,2.1360331-17.8698594.2164555-35.9630462-2.2397863-53.7917131-6.6860727-48.5309535-17.7256592-97.5053391-38.6148308-142.0297311-.4890187-1.042323-1.1616423-2.2165073-2.3029956-2.3677976-.6087805-.080697-1.2087317.162383-1.7747995.4004859-6.5769638,2.7664495-13.1539275,5.532899-19.7308915,8.2993482-3.3020333,1.3889253-6.6362537,2.7956925-9.5414317,4.8915166-2.2677636,1.6359876-4.2246392,3.6567826-6.2064507,5.6295041-19.6677713,19.5775623-43.0401124,35.4206367-68.509438,46.4395125,29.0449768,13.3968199,57.1346492,30.8901054,80.5662287,52.778673Z"/>
</svg>